nColumns=19
nRows=56
DataType=double
version=3
OpenSimVersion=4.1
endheader
time	ground_force_calcn_l_vx	ground_force_calcn_l_vy	ground_force_calcn_l_vz	ground_force_calcn_l_px	ground_force_calcn_l_py	ground_force_calcn_l_pz	ground_force_calcn_l_mx	ground_force_calcn_l_my	ground_force_calcn_l_mz	ground_force_calcn_r_vx	ground_force_calcn_r_vy	ground_force_calcn_r_vz	ground_force_calcn_r_px	ground_force_calcn_r_py	ground_force_calcn_r_pz	ground_force_calcn_r_mx	ground_force_calcn_r_my	ground_force_calcn_r_mz
0	0	0	0	0	0.0464094	0	0	0	0	0	0	0	0	0.0363214	0	0	0	0
0.00999069	-3.4711	375.876	-30.9766	-0.125914	-1.38489e-17	0.139699	0.0494365	-5.35335	0.44118	-4.53481	332.962	30.9965	-0.105817	-1.17053e-17	-0.163234	-0.0187344	1.37555	0.128054
0.0199814	-3.48181	376.46	-30.8653	-0.126086	-1.38732e-17	0.139583	0.0478916	-5.17813	0.424546	-4.44989	333.167	30.8166	-0.105499	-1.16717e-17	-0.163037	-0.0177914	1.33205	0.12321
0.0299721	-3.49615	377.042	-30.7816	-0.126235	-1.38942e-17	0.139462	0.0465284	-5.01784	0.409656	-4.35913	333.384	30.6098	-0.105208	-1.1641e-17	-0.162842	-0.0168661	1.28991	0.118434
0.0399628	-3.50498	377.613	-30.7382	-0.126342	-1.391e-17	0.139331	0.0452655	-4.87674	0.396972	-4.26762	333.588	30.3711	-0.104987	-1.16181e-17	-0.162647	-0.0159615	1.24767	0.113592
0.0499534	-3.50561	378.156	-30.7273	-0.126402	-1.392e-17	0.13919	0.0440863	-4.75566	0.386425	-4.17945	333.748	30.1065	-0.10484	-1.16033e-17	-0.162451	-0.0151427	1.20921	0.109079
0.0599441	-3.49696	378.66	-30.7464	-0.126416	-1.39242e-17	0.139037	0.0429856	-4.6546	0.377944	-4.09723	333.849	29.8329	-0.104762	-1.1596e-17	-0.162252	-0.0144319	1.17593	0.105082
0.0699348	-3.48472	379.12	-30.779	-0.126377	-1.3922e-17	0.13888	0.0420276	-4.5724	0.371212	-4.02601	333.876	29.564	-0.104751	-1.1596e-17	-0.162054	-0.0138163	1.14578	0.101457
0.0799255	-3.46644	379.532	-30.8131	-0.126301	-1.39151e-17	0.138736	0.0412242	-4.51354	0.366441	-3.96291	333.826	29.317	-0.104783	-1.16004e-17	-0.161862	-0.0133248	1.12245	0.0985748
0.0899162	-3.44342	379.893	-30.8366	-0.126204	-1.39053e-17	0.138622	0.0405719	-4.47606	0.363331	-3.90778	333.714	29.1174	-0.104832	-1.16064e-17	-0.161685	-0.012994	1.10965	0.0968198
0.0999069	-3.41881	380.201	-30.856	-0.126098	-1.3894e-17	0.13854	0.040093	-4.45869	0.361854	-3.86039	333.551	28.9704	-0.104882	-1.1612e-17	-0.161545	-0.0129124	1.11568	0.0969011
0.109898	-3.39629	380.455	-30.8859	-0.125977	-1.38805e-17	0.138486	0.0398812	-4.46753	0.36268	-3.81874	333.362	28.8735	-0.104925	-1.16162e-17	-0.161456	-0.0130093	1.13567	0.0983634
0.119888	-3.37589	380.649	-30.9335	-0.125849	-1.38654e-17	0.138459	0.0399374	-4.50315	0.36595	-3.78461	333.155	28.8276	-0.104955	-1.16187e-17	-0.161415	-0.0132575	1.16704	0.100983
0.129879	-3.36084	380.785	-31.0017	-0.125727	-1.38501e-17	0.138458	0.04028	-4.56375	0.371558	-3.76099	332.945	28.821	-0.10496	-1.1618e-17	-0.161415	-0.0136723	1.21036	0.104773
0.13987	-3.35293	380.88	-31.0957	-0.125618	-1.3836e-17	0.138476	0.040869	-4.64257	0.379027	-3.74699	332.737	28.8551	-0.104953	-1.16156e-17	-0.161438	-0.0142058	1.2615	0.109397
0.14986	-3.35431	380.948	-31.2024	-0.125523	-1.38229e-17	0.13851	0.0416679	-4.73222	0.387602	-3.75171	332.539	28.9268	-0.104959	-1.16145e-17	-0.161474	-0.014862	1.31732	0.114591
0.159851	-3.35591	381.014	-31.3141	-0.125428	-1.38097e-17	0.138556	0.0424893	-4.82404	0.39647	-3.77568	332.347	29.0243	-0.104995	-1.16168e-17	-0.161497	-0.0155645	1.37003	0.119647
0.169842	-3.35198	381.088	-31.411	-0.125329	-1.37965e-17	0.138605	0.0431556	-4.90638	0.404406	-3.81285	332.153	29.1385	-0.10508	-1.16247e-17	-0.161489	-0.016234	1.4142	0.124063
0.179832	-3.34317	381.17	-31.4798	-0.12523	-1.37838e-17	0.138641	0.0435657	-4.96713	0.410221	-3.85268	331.965	29.2442	-0.105209	-1.16378e-17	-0.161448	-0.0168731	1.45387	0.128077
0.189823	-3.34167	381.262	-31.5117	-0.12515	-1.37742e-17	0.138657	0.0437902	-4.99616	0.412938	-3.88848	331.788	29.329	-0.105374	-1.1655e-17	-0.161372	-0.0173806	1.48301	0.131094
0.199814	-3.34831	381.351	-31.4912	-0.125102	-1.37691e-17	0.138663	0.0438514	-4.9944	0.412427	-3.91721	331.625	29.3877	-0.105539	-1.1673e-17	-0.16126	-0.0176004	1.49002	0.132042
0.209804	-3.36555	381.431	-31.4172	-0.125096	-1.37694e-17	0.138659	0.0437931	-4.96323	0.408805	-3.93314	331.48	29.4177	-0.105685	-1.16897e-17	-0.161115	-0.0174536	1.47097	0.130543
0.219795	-3.38945	381.496	-31.2959	-0.125117	-1.37735e-17	0.13865	0.0436452	-4.91244	0.402991	-3.93725	331.359	29.4345	-0.105785	-1.17021e-17	-0.160943	-0.0169419	1.42583	0.126656
0.229786	-3.41561	381.527	-31.1358	-0.12515	-1.3779e-17	0.13864	0.0435064	-4.8597	0.396593	-3.94358	331.263	29.448	-0.105842	-1.17105e-17	-0.160753	-0.0161421	1.35595	0.120539
0.239777	-3.44788	381.518	-30.9623	-0.125164	-1.37824e-17	0.138611	0.0434789	-4.81107	0.390445	-3.95499	331.207	29.4661	-0.105847	-1.17134e-17	-0.16056	-0.0152316	1.27556	0.113481
0.249767	-3.49171	381.47	-30.7902	-0.125152	-1.37827e-17	0.138552	0.0436233	-4.76585	0.384674	-3.96729	331.203	29.4725	-0.105798	-1.17102e-17	-0.160377	-0.0143572	1.19859	0.106658
0.259758	-3.54718	381.389	-30.6365	-0.125113	-1.378e-17	0.138455	0.0438922	-4.71924	0.379091	-3.97536	331.26	29.458	-0.105708	-1.17022e-17	-0.16021	-0.0135838	1.13191	0.100658
0.269749	-3.61804	381.261	-30.5085	-0.12505	-1.37747e-17	0.138309	0.0442405	-4.66197	0.373051	-3.97804	331.371	29.4162	-0.105596	-1.16914e-17	-0.160055	-0.0129938	1.08239	0.0960845
0.279739	-3.69663	381.092	-30.418	-0.124965	-1.37669e-17	0.138123	0.04462	-4.59996	0.367159	-3.97631	331.526	29.3473	-0.105469	-1.16782e-17	-0.159917	-0.01261	1.05136	0.0930686
0.28973	-3.77629	380.884	-30.3648	-0.124866	-1.37575e-17	0.137909	0.0449902	-4.5378	0.361762	-3.9754	331.725	29.2554	-0.105336	-1.16639e-17	-0.159797	-0.0124812	1.04149	0.0918507
0.299721	-3.8507	380.647	-30.3485	-0.124761	-1.37471e-17	0.137692	0.0453415	-4.48207	0.35735	-3.97765	331.959	29.1522	-0.10519	-1.16476e-17	-0.159705	-0.0125842	1.05023	0.0922297
0.309711	-3.9196	380.389	-30.3521	-0.12466	-1.37367e-17	0.137508	0.0457429	-4.43926	0.354218	-3.98946	332.221	29.0473	-0.105032	-1.16295e-17	-0.159645	-0.0128903	1.07344	0.0938549
0.319702	-3.98092	380.121	-30.3669	-0.124557	-1.37256e-17	0.137376	0.0462513	-4.41634	0.35281	-4.01466	332.503	28.9477	-0.104875	-1.16113e-17	-0.159614	-0.013352	1.10585	0.0962748
0.329693	-4.02696	379.835	-30.3728	-0.124466	-1.37153e-17	0.13731	0.0468068	-4.41496	0.353034	-4.0644	332.802	28.8524	-0.104737	-1.15951e-17	-0.159611	-0.0139226	1.14002	0.0988341
0.339683	-4.05528	379.526	-30.3586	-0.124383	-1.37057e-17	0.137307	0.0472982	-4.42655	0.354083	-4.13889	333.114	28.7549	-0.104622	-1.15817e-17	-0.159628	-0.0145671	1.17242	0.101205
0.349674	-4.06796	379.188	-30.3201	-0.124306	-1.36967e-17	0.137359	0.0476994	-4.44622	0.355522	-4.23515	333.436	28.6491	-0.104532	-1.1571e-17	-0.159659	-0.0152662	1.20191	0.103269
0.359665	-4.06986	378.822	-30.2554	-0.12424	-1.36887e-17	0.137451	0.0480356	-4.47116	0.357097	-4.34135	333.758	28.5355	-0.104455	-1.15618e-17	-0.159694	-0.0160168	1.23136	0.105278
0.369655	-4.06029	378.428	-30.1621	-0.124186	-1.36823e-17	0.137575	0.0482621	-4.49814	0.358517	-4.45065	334.081	28.4156	-0.104371	-1.15519e-17	-0.159728	-0.0167624	1.25825	0.107021
0.379646	-4.03642	378.026	-30.0443	-0.12414	-1.36766e-17	0.137722	0.0483219	-4.52553	0.359675	-4.55372	334.398	28.2921	-0.104259	-1.1539e-17	-0.159756	-0.0174768	1.28339	0.108583
0.389637	-4.00619	377.629	-29.9002	-0.12409	-1.3671e-17	0.137865	0.048195	-4.54294	0.359704	-4.64578	334.702	28.1725	-0.104121	-1.15234e-17	-0.15977	-0.0180628	1.30132	0.109535
0.399628	-3.97019	377.244	-29.7431	-0.124026	-1.36643e-17	0.137982	0.0478264	-4.54443	0.358296	-4.72942	334.994	28.0614	-0.103958	-1.15053e-17	-0.15977	-0.0185187	1.31172	0.109878
0.409618	-3.93072	376.885	-29.5772	-0.123942	-1.36555e-17	0.13808	0.0472849	-4.53377	0.355801	-4.81197	335.274	27.9712	-0.103767	-1.1484e-17	-0.159771	-0.018924	1.31853	0.110002
0.419609	-3.88232	376.573	-29.3997	-0.123826	-1.36435e-17	0.138184	0.0465717	-4.51731	0.352674	-4.89283	335.541	27.9204	-0.103527	-1.14572e-17	-0.159768	-0.0193554	1.32736	0.11045
0.4296	-3.82416	376.307	-29.2171	-0.123681	-1.36282e-17	0.138299	0.0457607	-4.50297	0.349618	-4.9773	335.792	27.9123	-0.103245	-1.14259e-17	-0.159755	-0.0197762	1.3342	0.110904
0.43959	-3.75648	376.096	-29.0369	-0.123499	-1.36086e-17	0.138426	0.0449326	-4.49862	0.347321	-5.06609	336.012	27.9381	-0.102948	-1.1393e-17	-0.159722	-0.0200853	1.33217	0.110765
0.449581	-3.68745	375.933	-28.8595	-0.123275	-1.35842e-17	0.138564	0.0442064	-4.50681	0.345977	-5.15815	336.196	27.9918	-0.102653	-1.13606e-17	-0.159663	-0.0201945	1.31623	0.10959
0.459572	-3.62888	375.802	-28.6856	-0.123017	-1.35555e-17	0.138705	0.0437235	-4.52795	0.345626	-5.25159	336.347	28.0668	-0.102377	-1.13308e-17	-0.159582	-0.0200512	1.28421	0.107163
0.469562	-3.59667	375.685	-28.5357	-0.122735	-1.3524e-17	0.138817	0.0436436	-4.55873	0.346265	-5.33452	336.479	28.1478	-0.102143	-1.1306e-17	-0.159474	-0.019653	1.23963	0.1037
0.479553	-3.60105	375.581	-28.4182	-0.122444	-1.34914e-17	0.138879	0.0440047	-4.58958	0.34727	-5.40339	336.593	28.2252	-0.101955	-1.12865e-17	-0.159342	-0.0190196	1.18478	0.0993505
0.489544	-3.64312	375.494	-28.3354	-0.122152	-1.34587e-17	0.138884	0.0447646	-4.61387	0.34817	-5.46251	336.693	28.2868	-0.101826	-1.12739e-17	-0.159194	-0.0182162	1.12279	0.0943299
0.499534	-3.71615	375.417	-28.2897	-0.121875	-1.34278e-17	0.138832	0.0457834	-4.62518	0.348533	-5.5137	336.788	28.3215	-0.101777	-1.127e-17	-0.159055	-0.0173879	1.06209	0.0893138
0.509525	-3.8089	375.355	-28.2782	-0.121618	-1.33993e-17	0.138739	0.0468778	-4.61966	0.348032	-5.54993	336.879	28.322	-0.101778	-1.12717e-17	-0.158933	-0.016652	1.01077	0.0849772
0.519516	-3.9061	375.316	-28.294	-0.121372	-1.33724e-17	0.138625	0.0478962	-4.60208	0.346938	-5.56475	336.958	28.2971	-0.101797	-1.12748e-17	-0.158825	-0.0160891	0.974233	0.0818142
0.529507	-3.99736	375.304	-28.3276	-0.121131	-1.3346e-17	0.138514	0.0487721	-4.57911	0.345627	-5.55694	337.011	28.2425	-0.101822	-1.12783e-17	-0.158725	-0.0156752	0.95065	0.0796672
0.539497	-4.07602	375.318	-28.3663	-0.120892	-1.33199e-17	0.138417	0.0494565	-4.55393	0.344183	-5.52402	337.018	28.1606	-0.101848	-1.12816e-17	-0.158625	-0.0154001	0.939553	0.0785074
0.549488	-4.13477	375.346	-28.4047	-0.120675	-1.32961e-17	0.13834	0.0499511	-4.53445	0.34315	-5.47078	336.973	28.0688	-0.101881	-1.12853e-17	-0.158524	-0.01525	0.939326	0.0782429
